<svg xmlns="http://www.w3.org/2000/svg" width="600" height="400" viewBox="0 0 600 400" role="img" aria-labelledby="title desc"><title id="title">Osso disponível e região de planejamento</title><desc id="desc">Ilustração educativa esquemática. Não representa anatomia individual nem resultado de tratamento.</desc><rect width="600" height="400" rx="24" fill="#f4f1eb"/><circle cx="488" cy="70" r="130" fill="#e5ecf1"/><g stroke-linecap="round" stroke-linejoin="round"><path d="M90 162 203 158Q244 257 348 239L437 158 509 154V327H90Z" fill="#d9e4e7" stroke="#8199a6" stroke-width="4"/><path d="M203 158Q244 257 348 239L437 158Z" fill="#e3cbae" fill-opacity=".65" stroke="#a3815c" stroke-width="3" stroke-dasharray="7 6"/><g transform="translate(141 144) rotate(0) scale(0.9)"><path d="M-26-42C-42-42-39-10-31 7L-21 62Q-14 80-8 49L0 23 10 52Q17 77 23 60L32 7C41-15 41-43 25-43 13-46 7-33 0-33S-15-45-26-42Z" fill="#fffdf6" stroke="#7c91a2" stroke-width="3"/><path d="M-30-7Q0 1 30-7" fill="none" stroke="#b0bbc2" stroke-width="2"/></g><g transform="translate(467 138) rotate(0) scale(0.9)"><path d="M-26-42C-42-42-39-10-31 7L-21 62Q-14 80-8 49L0 23 10 52Q17 77 23 60L32 7C41-15 41-43 25-43 13-46 7-33 0-33S-15-45-26-42Z" fill="#fffdf6" stroke="#7c91a2" stroke-width="3"/><path d="M-30-7Q0 1 30-7" fill="none" stroke="#b0bbc2" stroke-width="2"/></g><path d="M252 150Q279 129 296 150 318 130 338 150L333 192H257Z" fill="#fdfcf5" stroke="#718b9d" stroke-width="2" stroke-dasharray="6 5"/><path d="M277 153 261 77" fill="none" stroke="#526f85" stroke-width="2" stroke-dasharray="5 4"/><circle cx="257" cy="58" r="15" fill="#294963"/><text x="257" y="64" text-anchor="middle" fill="white" font-size="18" font-family="Arial" font-weight="700">1</text><path d="M312 205 390 82" fill="none" stroke="#526f85" stroke-width="2" stroke-dasharray="5 4"/><circle cx="401" cy="63" r="15" fill="#294963"/><text x="401" y="69" text-anchor="middle" fill="white" font-size="18" font-family="Arial" font-weight="700">2</text><path d="M181 295H77" fill="none" stroke="#526f85" stroke-width="2" stroke-dasharray="5 4"/><circle cx="58" cy="295" r="15" fill="#294963"/><text x="58" y="301" text-anchor="middle" fill="white" font-size="18" font-family="Arial" font-weight="700">3</text></g></svg>